<svg y="0px" x="0px" viewBox="3.25 21.5 97 61.5" data-name="Layer 1" xmlns="http://www.w3.org/2000/svg" style="max-height: 500px" width="97" height="61.5"><defs><style>.cls-1{fill:#010101;}</style></defs><title>Sketchy Icons</title><g data-name="Shape 30"><path d="M53.43,71.3c-0.53-.41-0.6-2-0.28-2.89a3.6,3.6,0,0,1,1.4-1.79L79.62,47.34A598.35,598.35,0,0,0,6.5,81.06c-0.62.34-1.1-1.41-.84-2.58a4,4,0,0,1,1.48-2.31q7.28-6.34,14.75-11.72c2.75-2,5.51-3.85,8.28-5.73,17.52-11.9,35.09-23.82,53.13-32C56.83,31.66,30.61,41.33,5,55.56c-0.56.31-1-1.35-.67-2.36A2.59,2.59,0,0,1,5.8,51.52C35.16,35.75,65.31,25.64,95.66,22.37a1.32,1.32,0,0,1,1.5.62c0.39,0.7.31,2.35-.21,2.44C81.75,28.22,67.07,37.62,52.54,47,40.47,54.76,28.41,62.57,16.61,71.85l35.54-16C62.77,51,73.41,46.25,84.21,43.55a1.51,1.51,0,0,1,1.85.47c0.52,0.75.56,2.71-.06,3.07A178.06,178.06,0,0,0,54.52,70.92C54.18,71.24,53.79,71.57,53.43,71.3Z" class="cls-1"/></g><text font-family="'Helvetica Neue', Helvetica, Arial-Unicode, Arial, Sans-serif" font-weight="bold" font-size="5px" fill="#000000" y="115" x="0">Created by Kayla Valencia</text><text font-family="'Helvetica Neue', Helvetica, Arial-Unicode, Arial, Sans-serif" font-weight="bold" font-size="5px" fill="#000000" y="120" x="0">from the Noun Project</text></svg>